<?xml version="1.0" encoding="utf-8"?>
<!-- Generator: Adobe Illustrator 24.3.0, SVG Export Plug-In . SVG Version: 6.00 Build 0)  -->
<svg version="1.1" id="Слой_1" xmlns="http://www.w3.org/2000/svg" xmlns:xlink="http://www.w3.org/1999/xlink" x="0px" y="0px"
	 viewBox="0 0 184 36" style="enable-background:new 0 0 184 36;" xml:space="preserve">
<style type="text/css">
	.st0{fill-rule:evenodd;clip-rule:evenodd;fill:#4F4F4F;}
</style>
<path class="st0" d="M9.4,6.5H8c-2.1,0-4.2,1.4-4.2,5.3c0,3.8,1.9,5,4.2,5h1.4V6.5z M7.2,18.9l-4.2,9H0l4.6-9.6
	c-2.2-1.1-3.6-3-3.6-6.5c0-4.9,3.2-7.4,7.1-7.4H12v23.5H9.4v-9H7.2z M59.5,19.6c0-5.3,2-8.7,5.8-8.7c1.5,0,2.3,0.4,3,0.9l-0.4,2.5
	c-0.7-0.6-1.6-1.2-2.7-1.2c-1.8,0-3.1,2.1-3.1,6.4c0,4.2,1,6.6,3,6.6c1.2,0,2.2-0.5,2.7-1l0.6,1.9c-0.9,0.8-1.9,1.3-3.4,1.3
	C61.6,28.2,59.5,25.3,59.5,19.6z M52.1,19.6V28h-2.5V11.1h2.5v7.8l3.9-7.8h2.6l-4,8l4.6,9h-2.8L52.1,19.6L52.1,19.6z M40.2,18h4.2
	c0-2.9-0.5-5-1.9-5C40.9,13,40.4,15,40.2,18L40.2,18z M43,28.2c-3.4,0-5.4-2.8-5.4-8c0-5.4,1.5-9.4,4.9-9.4c2.7,0,4.5,2.1,4.5,7.9
	v1.4h-6.8c0,3.8,1,5.8,3,5.8c1.4,0,2.6-0.7,3.2-1.1l0.6,2C46,27.7,44.6,28.2,43,28.2L43,28.2z M32.3,13.2h-2.8v0.3
	c0,3.6-0.2,8.8-1.5,12.4h4.3L32.3,13.2L32.3,13.2z M36,31.3h-2.3V28h-7v3.3h-2.3v-5.5h1c1.5-3.6,1.6-8.8,1.6-13.3v-1.4h7.6v14.8h1.3
	L36,31.3L36,31.3z M23.1,11.1V28h-2.5v-7.6h-3.8V28h-2.5V11.1h2.5v7.2h3.8v-7.2H23.1z M86.5,4h-7v24.1h-1.7V2.5h10.3v25.6h-1.7V4
	L86.5,4z M96.5,27.1c1.1,0,1.9-0.7,2.5-2.1c0.6-1.4,1-3.5,1-6.3c0-2.4-0.3-4.2-0.8-5.5c-0.6-1.3-1.3-2-2.3-2c-0.4,0-0.7,0.1-1.1,0.3
	c-0.4,0.2-0.7,0.5-1,0.8c-0.3,0.3-0.6,0.7-0.8,1.2c-0.2,0.4-0.5,0.9-0.6,1.4v10.1c0.3,0.7,0.7,1.3,1.2,1.6
	C95.2,26.9,95.8,27.1,96.5,27.1L96.5,27.1z M96.4,28.4c-0.6,0-1.2-0.1-1.7-0.4c-0.5-0.3-0.9-0.7-1.2-1.1v6.8h-1.6V10.1h1.4l0.1,3
	c0.4-0.9,0.9-1.6,1.5-2.3c0.6-0.7,1.4-1,2.3-1c0.7,0,1.3,0.2,1.8,0.6c0.6,0.4,1,1,1.4,1.8c0.4,0.8,0.7,1.7,0.9,2.8
	c0.2,1.1,0.3,2.3,0.3,3.6c0,3.3-0.5,5.8-1.4,7.4C99.2,27.6,98,28.4,96.4,28.4L96.4,28.4z M107.8,27.1c0.8,0,1.4-0.3,2-1
	c0.5-0.7,1-1.5,1.3-2.5v-5h-1.8c-1.4,0-2.4,0.4-3.1,1.1c-0.7,0.7-1,1.9-1,3.4c0,1.3,0.2,2.3,0.7,3C106.4,26.7,107,27.1,107.8,27.1
	L107.8,27.1z M111.5,28.1c-0.1-0.3-0.2-0.6-0.2-0.9c-0.1-0.5-0.2-1-0.2-1.5c-0.4,0.9-0.9,1.5-1.5,2c-0.6,0.5-1.3,0.8-2.1,0.8
	c-1.1,0-2-0.5-2.7-1.4c-0.7-0.9-1.1-2.2-1.1-3.8c0-1.9,0.5-3.4,1.4-4.4s2.3-1.5,4.1-1.5h1.8v-2.3c0-1.4-0.2-2.4-0.7-3
	c-0.5-0.6-1.2-0.9-2.1-0.9c-0.7,0-1.4,0.2-2,0.5c-0.6,0.3-1.1,0.8-1.5,1.4l-0.4-1.6c0.3-0.5,0.8-0.9,1.5-1.3
	c0.7-0.4,1.5-0.6,2.4-0.6c1.4,0,2.4,0.4,3.2,1.3s1.1,2.2,1.1,3.9v9.8c0,0.6,0,1.2,0.1,1.9c0.1,0.6,0.2,1.1,0.3,1.4H111.5z
	 M117.7,28.1h-1.6v-18h1.6v8.5l5.6-8.5h1.5l-5.5,8.4l5.9,9.6h-1.7l-5.8-9.3V28.1z M131.1,11.4v16.6h-1.6V11.4h-3.9v-1.4h9.2v1.4
	H131.1L131.1,11.4z M145.1,15.5c0-0.5,0-0.9,0-1.3c0-0.4,0.1-0.8,0.1-1.2h-0.1c-0.1,0.4-0.2,0.8-0.4,1.2c-0.2,0.4-0.3,0.8-0.5,1.2
	l-5.4,12.7h-1.3v-18h1.5v12.5c0,0.8,0,1.7-0.1,2.5h0.1c0.1-0.4,0.2-0.8,0.4-1.2c0.2-0.4,0.3-0.8,0.5-1.2l5.4-12.7h1.4v18h-1.5V15.5z
	 M151.9,28.1h-1.6v-18h1.6v8.5l5.6-8.5h1.5l-5.5,8.4l5.9,9.6h-1.7l-5.8-9.3V28.1z M161.6,33.8c-0.2,0-0.3,0-0.5,0
	c-0.1,0-0.3,0-0.4-0.1l-0.2-1.6c0.1,0,0.3,0.1,0.4,0.1c0.2,0,0.4,0,0.6,0c0.6,0,1.1-0.3,1.5-0.8c0.4-0.6,0.7-1.3,1-2.3l0.1-0.5
	L160,10.1h1.6l2.6,11.8c0.2,0.7,0.3,1.4,0.4,2c0.1,0.7,0.2,1.3,0.3,2h0.1c0.1-0.7,0.2-1.4,0.4-2.1c0.1-0.7,0.3-1.3,0.4-2l2.6-11.8
	h1.4L165.5,29c-0.1,0.6-0.3,1.2-0.5,1.8c-0.2,0.5-0.5,1.1-0.8,1.5c-0.3,0.4-0.7,0.8-1.1,1.1C162.7,33.7,162.2,33.8,161.6,33.8
	L161.6,33.8z M174.1,15.3c-0.1-0.5-0.2-0.9-0.3-1.3c-0.1-0.4-0.2-0.9-0.3-1.3h-0.1c0,0.5,0.1,1,0.1,1.4c0,0.5,0,1.1,0,1.7v12.2h-1.3
	v-18h1.8l2.9,11c0.2,0.6,0.3,1.2,0.4,1.6c0.1,0.5,0.1,0.9,0.2,1.4h0.1c0-0.5,0.1-0.9,0.2-1.4c0.1-0.5,0.2-1,0.4-1.6l3-11h1.8v18
	h-1.5V15.8c0-1.1,0-2.1,0.1-3.2h-0.1c-0.1,0.5-0.2,1-0.2,1.4c-0.1,0.4-0.2,0.9-0.3,1.3l-2.8,10.6h-1.3L174.1,15.3L174.1,15.3z"/>
</svg>
